<?xml version="1.0" standalone="no"?>
<!DOCTYPE svg PUBLIC "-//W3C//DTD SVG 20010904//EN"
 "http://www.w3.org/TR/2001/REC-SVG-20010904/DTD/svg10.dtd">
<svg version="1.0" xmlns="http://www.w3.org/2000/svg"
 width="426.000000pt" height="405.000000pt" viewBox="0 0 426.000000 405.000000"
 preserveAspectRatio="xMidYMid meet">

<g transform="translate(0.000000,405.000000) scale(0.100000,-0.100000)"
fill="#000000" stroke="none">
<path d="M0 2181 l0 -1869 28 -11 c36 -16 68 -34 90 -54 10 -10 24 -17 30 -17
7 0 12 -4 12 -10 0 -5 8 -10 18 -10 10 0 27 -7 38 -15 10 -8 27 -15 37 -15 11
0 15 -4 11 -12 -5 -7 0 -9 14 -6 15 4 19 2 15 -9 -5 -12 -1 -14 14 -9 14 4 23
1 27 -9 3 -8 2 -15 -3 -15 -16 0 -80 30 -86 40 -6 10 -55 15 -55 5 0 -3 18
-23 40 -45 26 -26 40 -49 40 -66 0 -56 -40 -53 965 -54 l930 0 60 72 c122 146
403 354 643 475 76 38 95 44 102 33 8 -12 14 -12 46 3 20 10 39 16 42 13 3 -3
-3 -9 -14 -13 -32 -12 -284 -162 -346 -206 -32 -23 -74 -52 -91 -64 -202 -140
-380 -293 -362 -312 4 -3 18 8 33 25 15 16 34 29 42 29 16 -1 29 11 46 40 5
10 30 34 55 54 24 20 36 26 26 15 -9 -11 -14 -24 -10 -29 5 -4 1 -6 -8 -3 -12
5 -15 1 -12 -15 2 -13 -6 -36 -21 -56 -14 -19 -26 -41 -26 -48 0 -11 174 -13
945 -13 l945 0 0 2025 0 2025 -2130 0 -2130 0 0 -1869z m2406 344 c-1 -8 -5
-17 -8 -21 -5 -4 -4 16 1 34 3 9 9 -1 7 -13z m-76 -40 c-16 -20 -6 -19 25 1
14 9 25 14 25 10 0 -8 -83 -59 -97 -59 -7 0 -10 -4 -7 -8 6 -11 -139 -99 -188
-113 -52 -15 -202 -9 -251 10 -37 14 -11 -19 116 -148 72 -74 124 -133 115
-130 -10 2 -18 9 -18 14 0 5 -5 6 -12 2 -6 -4 -8 -3 -5 3 9 14 -12 29 -41 31
-20 1 -22 -2 -11 -14 7 -8 18 -13 25 -10 8 3 13 2 11 -2 -1 -4 16 -24 38 -44
22 -21 35 -38 28 -38 -7 0 -17 9 -23 21 -7 11 -14 18 -17 15 -3 -3 -33 18 -67
47 -33 28 -70 59 -81 69 -11 9 -61 50 -111 92 -51 42 -102 80 -115 86 -19 8
-20 9 -4 7 11 -1 30 9 44 23 l23 25 -43 7 c-24 3 -3 4 46 2 50 -3 135 -12 190
-21 109 -17 185 -12 225 15 45 30 72 42 81 36 5 -3 8 -1 7 5 -2 6 20 27 47 46
56 39 63 42 45 20z m253 -59 c10 -12 31 -36 47 -54 17 -18 30 -37 30 -42 0 -5
10 -19 23 -31 22 -21 22 -21 0 -10 -12 6 -25 20 -28 31 -4 11 -11 17 -17 14
-6 -4 -8 -3 -5 3 9 14 -75 103 -96 103 -9 0 -17 4 -17 9 0 15 44 -1 63 -23z
m-463 15 c0 -5 3 -16 6 -25 4 -10 -5 -20 -26 -31 -28 -15 -43 -15 -119 -5 -47
6 -95 14 -106 17 -35 10 50 35 145 43 47 4 88 8 93 8 4 1 7 -2 7 -7z m390 3
c0 -8 -19 -13 -24 -6 -3 5 1 9 9 9 8 0 15 -2 15 -3z m-195 -96 c-3 -18 -14
-78 -25 -133 -18 -94 -23 -116 -37 -155 -4 -8 -5 -24 -4 -35 1 -18 0 -18 -12
3 -7 12 -16 20 -20 16 -3 -4 -13 -1 -22 6 -9 7 -19 9 -23 5 -4 -4 -1 -10 6
-12 6 -3 9 -9 6 -14 -3 -6 0 -16 6 -24 18 -22 -4 -18 -24 3 -15 18 -14 27 19
157 19 76 36 139 37 141 7 6 93 73 96 73 1 1 0 -14 -3 -31z m420 -98 c10 -11
16 -20 13 -20 -3 0 -13 9 -23 20 -10 11 -16 20 -13 20 3 0 13 -9 23 -20z m-90
-19 c-6 -5 -25 10 -25 20 0 5 6 4 14 -3 8 -7 12 -15 11 -17z m-535 -92 l-12
-71 -78 74 c-43 40 -78 75 -79 78 0 3 33 5 74 5 47 0 79 5 87 13 19 20 22 -15
8 -99z m476 31 c67 -65 120 -128 113 -133 -2 -2 -20 -15 -41 -30 -70 -51 -168
-117 -168 -112 0 5 24 39 102 144 44 59 51 71 39 71 -12 0 -61 -47 -165 -160
-47 -51 -72 -73 -63 -55 8 17 18 46 21 65 4 19 21 92 38 162 24 98 34 125 45
120 7 -4 43 -37 79 -72z m-448 -170 c17 -27 10 -25 -19 6 -13 14 -17 23 -9 19
9 -3 21 -14 28 -25z m82 26 c0 -3 -4 -8 -10 -11 -5 -3 -10 -1 -10 4 0 6 5 11
10 11 6 0 10 -2 10 -4z m479 -32 c-35 -38 -148 -133 -124 -105 37 44 139 140
144 136 2 -3 -6 -17 -20 -31z m-166 -6 c-6 -7 -41 -52 -77 -101 -37 -48 -72
-85 -77 -82 -7 5 148 194 160 195 2 0 -1 -6 -6 -12z m-406 -23 c0 -8 -4 -12
-9 -9 -5 3 -6 10 -3 15 9 13 12 11 12 -6z m-505 -32 c-3 -21 -9 -41 -15 -45
-6 -3 -12 -15 -13 -25 -3 -17 -2 -17 12 1 16 22 20 2 5 -23 -7 -11 -15 -11
-45 -1 -52 17 -68 6 -23 -15 36 -18 54 -44 20 -30 -42 17 -52 16 -76 -11 -14
-15 -39 -55 -56 -90 -51 -105 -37 -146 18 -50 16 30 44 64 60 76 l31 21 44
-19 c43 -19 68 -42 46 -42 -6 0 -8 -5 -4 -12 4 -6 7 -31 5 -55 -5 -97 38 -163
104 -163 25 0 40 8 59 31 14 17 26 35 26 40 0 18 -28 8 -44 -16 -20 -30 -35
-31 -69 -4 -48 37 -57 149 -13 149 12 0 13 -6 5 -29 -13 -38 5 -107 31 -121
17 -9 20 -7 26 15 3 14 4 41 2 60 -5 41 3 45 22 10 15 -27 47 -34 56 -11 4 11
20 7 75 -21 58 -29 68 -38 58 -50 -30 -35 -236 -89 -302 -78 -64 9 -228 104
-240 138 -2 7 -8 9 -12 5 -5 -5 0 -17 10 -28 20 -22 11 -27 -15 -7 -9 6 -5 2
8 -11 13 -12 28 -20 33 -17 5 4 12 -1 15 -9 3 -9 11 -13 17 -9 6 4 7 1 3 -6
-5 -7 -15 -10 -23 -7 -9 4 -11 2 -7 -5 4 -7 1 -10 -7 -7 -8 3 -13 11 -11 17 1
7 -2 10 -8 6 -5 -3 -24 9 -41 27 l-32 33 25 -35 c14 -19 47 -49 73 -67 55 -37
110 -59 99 -41 -5 8 -1 9 10 5 10 -4 20 -7 23 -7 3 0 -15 -22 -41 -50 -25 -27
-46 -54 -46 -60 0 -5 -4 -10 -8 -10 -26 0 -157 260 -156 310 0 38 98 250 115
250 6 0 7 4 4 10 -3 5 10 31 29 56 20 26 36 42 36 36 0 -6 -4 -14 -10 -17 -5
-3 -10 -14 -10 -23 0 -14 2 -13 13 3 13 17 15 17 36 -4 28 -28 61 -14 61 28 0
22 7 41 15 41 0 0 -1 -17 -3 -37z m613 27 c3 -6 -1 -7 -9 -4 -18 7 -21 14 -7
14 6 0 13 -4 16 -10z m643 -66 c54 -38 15 -112 -119 -224 -129 -108 -173 -124
-277 -99 -56 14 -73 26 -70 48 2 10 -3 15 -12 13 -9 -2 -3 9 13 26 l29 30 46
-25 47 -25 -33 29 c-39 34 -40 41 -4 73 57 52 58 52 72 22 24 -48 72 -92 100
-92 32 0 67 35 80 80 16 55 -6 59 -31 6 -20 -40 -27 -46 -54 -46 -20 0 -35 7
-43 21 -16 26 -12 30 30 32 30 2 33 5 36 35 3 32 8 36 49 32 20 -1 22 2 17 28
-6 27 -3 30 32 40 56 14 67 14 92 -4z m-1231 -71 c-13 -13 -13 -10 -3 22 9 30
12 32 14 15 2 -13 -3 -29 -11 -37z m87 31 c3 -8 2 -12 -4 -9 -6 3 -10 10 -10
16 0 14 7 11 14 -7z m76 -70 c0 -9 -37 15 -51 33 -10 12 -5 11 19 -6 17 -12
32 -24 32 -27z m-85 6 c3 -5 2 -10 -4 -10 -5 0 -13 5 -16 10 -3 6 -2 10 4 10
5 0 13 -4 16 -10z m-95 -21 c0 -6 -4 -7 -10 -4 -5 3 -10 11 -10 16 0 6 5 7 10
4 6 -3 10 -11 10 -16z m220 -21 c0 -6 -7 -5 -15 2 -8 7 -15 17 -15 22 0 6 7 5
15 -2 8 -7 15 -17 15 -22z m440 28 c0 -3 -4 -8 -10 -11 -5 -3 -10 -1 -10 4 0
6 5 11 10 11 6 0 10 -2 10 -4z m50 -21 c0 -3 -11 -18 -25 -33 -20 -21 -27 -24
-37 -14 -11 11 -8 17 12 32 24 19 50 26 50 15z m-380 -134 c64 -44 84 -85 25
-49 -42 24 -162 134 -177 161 -5 11 19 -5 54 -35 34 -29 79 -64 98 -77z m-225
93 c17 -14 21 -21 10 -16 -30 16 -61 41 -50 41 6 0 24 -11 40 -25z m240 -62
c15 -9 16 -11 4 -12 -8 0 -40 23 -70 51 l-54 51 50 -39 c28 -22 59 -45 70 -51z
m378 58 c-3 -11 -10 -23 -16 -27 -5 -3 -8 -2 -5 3 3 5 8 17 11 27 9 24 16 22
10 -3z m41 -12 c-4 -7 -16 -23 -27 -35 -11 -13 -15 -23 -9 -23 7 0 12 -8 12
-18 0 -13 19 -28 58 -48 108 -55 235 -27 348 76 23 21 52 43 65 49 13 7 0 -11
-30 -38 -66 -61 -63 -79 3 -21 26 22 49 40 50 40 22 0 66 -26 74 -45 31 -68
54 -202 50 -297 -1 -53 -6 -100 -10 -103 -4 -4 -60 18 -125 50 -154 75 -157
76 -178 61 -16 -12 -17 -18 -2 -88 16 -81 53 -179 112 -299 l37 -76 -27 -44
c-15 -24 -37 -54 -48 -67 -18 -20 -19 -24 -7 -33 13 -8 13 -9 -1 -7 -16 3
-113 -112 -103 -122 3 -2 8 0 12 6 4 5 21 18 37 28 l30 19 -20 -23 c-38 -44
-72 -75 -141 -132 -86 -70 -185 -102 -294 -96 -64 3 -69 6 -121 52 -30 27 -72
61 -94 75 -23 14 -91 62 -152 106 -159 114 -169 148 -77 247 49 52 51 62 28
112 -12 24 -35 44 -77 67 -39 23 -67 47 -81 71 l-21 37 30 58 c35 70 46 93 41
93 -8 0 -62 -97 -77 -139 -15 -41 -17 -43 -28 -23 -17 33 -13 51 22 101 35 48
51 97 36 107 -12 7 -11 24 0 24 5 0 19 -15 30 -32 l21 -33 -5 30 c-4 29 -3 31
47 43 70 16 187 72 199 94 6 10 15 16 22 13 7 -4 -6 10 -28 30 l-40 36 49 -30
c68 -42 80 -41 59 7 -10 20 -24 45 -32 55 -23 27 -5 20 68 -28 89 -59 160
-129 206 -205 20 -33 38 -60 40 -60 2 0 -1 15 -6 33 -6 17 -17 56 -24 85 -8
28 -21 68 -30 88 l-15 35 41 -33 c68 -56 124 -98 132 -98 4 0 -4 18 -17 39
-24 37 -65 118 -79 154 -4 12 -2 14 10 10 10 -4 14 -2 10 4 -4 6 5 25 19 42
26 32 41 41 28 19z m-74 -30 c0 -18 -2 -20 -9 -8 -6 8 -7 18 -5 22 9 14 14 9
14 -14z m-490 -14 c0 -2 -9 0 -20 6 -11 6 -20 13 -20 16 0 2 9 0 20 -6 11 -6
20 -13 20 -16z m31 -21 c13 -16 12 -17 -3 -4 -10 7 -18 15 -18 17 0 8 8 3 21
-13z m-271 -216 c0 -5 -15 0 -32 10 -32 19 -78 35 -78 27 0 -2 17 -12 38 -23
20 -11 33 -20 29 -21 -4 0 -26 10 -49 21 -41 21 -42 21 -18 34 20 11 29 9 66
-14 24 -14 44 -30 44 -34z m-286 -36 c-6 -6 -11 1 -18 29 l-7 25 15 -25 c8
-14 12 -27 10 -29z m341 19 c8 -13 -15 -13 -35 0 -12 8 -11 10 7 10 12 0 25
-4 28 -10z m-146 -188 c8 -26 18 -52 23 -59 6 -7 4 -19 -4 -32 -16 -27 -25
-26 -33 2 -4 12 -35 74 -69 137 -33 63 -63 119 -65 125 -2 5 28 -20 66 -58 53
-52 72 -78 82 -115z m138 165 c27 -15 24 -20 -59 -90 -66 -56 -85 -58 -66 -7
9 24 86 110 98 110 3 -1 15 -6 27 -13z m-303 -59 c-4 -6 -3 -8 4 -4 9 5 53
-72 52 -93 -1 -20 -90 126 -90 148 0 3 9 -5 21 -17 11 -12 17 -27 13 -34z
m228 -251 c-27 -26 -34 -29 -42 -17 -6 10 -3 21 10 35 11 12 20 30 20 40 0 18
1 18 22 -3 l23 -22 -33 -33z m226 -35 c23 -22 42 -46 42 -55 0 -14 -54 -84
-81 -107 -20 -17 -28 -50 -19 -76 14 -37 8 -39 -23 -6 -45 47 -45 78 2 148 43
64 48 83 31 115 -17 30 3 22 48 -19z m619 -679 c-3 -10 -5 -4 -5 12 0 17 2 24
5 18 2 -7 2 -21 0 -30z m40 -25 c-2 -13 -4 -3 -4 22 0 25 2 35 4 23 2 -13 2
-33 0 -45z m-97 12 c0 -16 -2 -30 -4 -30 -2 0 -6 14 -8 30 -3 17 -1 30 4 30 4
0 8 -13 8 -30z m27 -2 c-3 -8 -6 -5 -6 6 -1 11 2 17 5 13 3 -3 4 -12 1 -19z
m-90 -35 c-3 -10 -5 -4 -5 12 0 17 2 24 5 18 2 -7 2 -21 0 -30z m30 5 c-3 -7
-5 -2 -5 12 0 14 2 19 5 13 2 -7 2 -19 0 -25z m100 -10 c-3 -8 -6 -5 -6 6 -1
11 2 17 5 13 3 -3 4 -12 1 -19z m-137 -28 c33 -17 60 -34 60 -38 0 -4 -25 -32
-55 -62 l-55 -55 0 55 c0 30 -4 72 -9 93 -5 20 -7 37 -5 37 3 0 31 -14 64 -30z
m-1879 -107 c13 -16 12 -17 -3 -4 -17 13 -22 21 -14 21 2 0 10 -8 17 -17z
m-21 -53 c0 -5 -7 -7 -15 -4 -8 4 -15 8 -15 10 0 2 7 4 15 4 8 0 15 -4 15 -10z
m90 -26 c0 -2 -7 -4 -15 -4 -8 0 -15 4 -15 10 0 5 7 7 15 4 8 -4 15 -8 15 -10z"/>
<path d="M2295 2460 c-3 -6 1 -7 9 -4 18 7 21 14 7 14 -6 0 -13 -4 -16 -10z"/>
<path d="M1745 2280 c4 -6 11 -8 16 -5 14 9 11 15 -7 15 -8 0 -12 -5 -9 -10z"/>
<path d="M1830 2226 c0 -2 7 -7 16 -10 8 -3 12 -2 9 4 -6 10 -25 14 -25 6z"/>
<path d="M1850 2195 c0 -2 13 -13 29 -25 21 -14 32 -17 37 -9 4 7 3 9 -3 6
-11 -7 -37 16 -28 24 2 3 -5 5 -15 6 -11 1 -20 0 -20 -2z"/>
<path d="M1933 2163 c4 -6 1 -14 -5 -17 -9 -3 -6 -11 11 -23 28 -21 66 -26 50
-7 -6 7 -17 10 -25 7 -9 -3 -12 0 -9 9 3 8 -2 21 -11 29 -10 8 -15 9 -11 2z"/>
<path d="M1500 1870 c-9 -6 -10 -10 -3 -10 6 0 15 5 18 10 8 12 4 12 -15 0z"/>
<path d="M1565 1860 c3 -5 8 -10 11 -10 2 0 4 5 4 10 0 6 -5 10 -11 10 -5 0
-7 -4 -4 -10z"/>
<path d="M1454 1818 c-34 -37 -69 -109 -62 -129 2 -7 18 13 34 45 16 32 39 68
51 80 13 11 23 24 23 29 0 15 -17 6 -46 -25z"/>
<path d="M2524 1738 l-29 -33 33 29 c30 28 37 36 29 36 -2 0 -16 -15 -33 -32z"/>
<path d="M2074 1401 c3 -35 6 -84 6 -108 0 -31 4 -42 11 -37 15 9 5 166 -11
192 -9 13 -10 2 -6 -47z"/>
<path d="M1920 1440 c-8 -5 -10 -10 -5 -10 6 0 17 5 25 10 8 5 11 10 5 10 -5
0 -17 -5 -25 -10z"/>
<path d="M1840 1409 c-26 -11 -33 -17 -18 -14 36 7 78 23 78 30 0 8 -11 5 -60
-16z"/>
<path d="M2062 1200 l-22 -29 29 -34 c28 -31 98 -63 110 -51 8 7 -38 44 -54
44 -25 0 -47 37 -40 69 8 38 6 38 -23 1z"/>
<path d="M2210 1151 c0 -11 56 -20 71 -11 6 4 1 10 -13 13 -33 9 -58 8 -58 -2z"/>
<path d="M2440 903 c-19 -2 -101 -13 -181 -24 -80 -11 -153 -17 -162 -13 -9 3
-29 -3 -47 -16 -34 -24 -39 -41 -10 -33 11 3 20 1 20 -3 0 -12 51 -66 57 -61
2 3 -7 16 -21 30 -28 28 -33 52 -13 59 19 8 37 -2 38 -20 0 -13 2 -12 9 4 5
14 21 24 42 28 59 11 331 36 391 36 32 0 56 4 53 9 -6 8 -113 11 -176 4z"/>
<path d="M2115 790 c-3 -5 -1 -10 4 -10 6 0 11 5 11 10 0 6 -2 10 -4 10 -3 0
-8 -4 -11 -10z"/>
<path d="M2386 83 c-6 -14 -5 -15 5 -6 7 7 10 15 7 18 -3 3 -9 -2 -12 -12z"/>
<path d="M2300 21 c0 -6 4 -13 10 -16 6 -3 7 1 4 9 -7 18 -14 21 -14 7z"/>
</g>
</svg>
